Coordinates
version=1
nRows=11
nColumns=40
inDegrees=yes

Units are S.I. units (second, meters, Newtons, ...)
If the header above contains a line with 'inDegrees', this indicates whether rotational values are in degrees (yes) or radians (no).

endheader
time	pelvis_tilt	pelvis_list	pelvis_rotation	pelvis_tx	pelvis_ty	pelvis_tz	hip_flexion_r	hip_adduction_r	hip_rotation_r	knee_angle_r	knee_angle_r_beta	ankle_angle_r	subtalar_angle_r	mtp_angle_r	hip_flexion_l	hip_adduction_l	hip_rotation_l	knee_angle_l	knee_angle_l_beta	ankle_angle_l	subtalar_angle_l	mtp_angle_l	lumbar_extension	lumbar_bending	lumbar_rotation	arm_flex_r	arm_add_r	arm_rot_r	elbow_flex_r	pro_sup_r	wrist_flex_r	wrist_dev_r	arm_flex_l	arm_add_l	arm_rot_l	elbow_flex_l	pro_sup_l	wrist_flex_l	wrist_dev_l
      4.51000000	    -11.71243804	     -1.24310062	     -1.00187622	     -0.34871137	      0.87555514	     -0.87754126	     42.71006462	    -15.26868320	    -14.88567629	     63.71908036	      1.11210775	     31.57777321	      0.00000000	      0.00000000	     45.82593867	    -21.61487726	    -14.97320097	     65.88697203	      1.14994460	     24.62792120	      0.00000000	      0.00000000	    -17.72572409	      0.49699141	      6.41199750	     27.61286833	    -44.94470742	     89.18221433	     83.50353501	     88.16760674	      0.00000000	      0.00000000	     30.74630551	    -42.32012672	     89.46772264	     86.99500337	     88.29574490	      0.00000000	      0.00000000
      4.51500000	    -11.21915847	     -1.18085519	     -1.01335529	     -0.34426898	      0.88542024	     -0.87782263	     40.89655240	    -15.24960657	    -15.61210514	     61.69998534	      1.07686789	     30.39242072	      0.00000000	      0.00000000	     44.02889756	    -21.34853477	    -15.55161246	     64.13690273	      1.11940012	     23.31842824	      0.00000000	      0.00000000	    -17.16619901	      0.50535027	      6.53475881	     27.38968028	    -44.65537164	     89.22702848	     82.74745238	     88.16904236	      0.00000000	      0.00000000	     30.66657878	    -41.85222007	     89.49160344	     86.18184390	     88.29681774	      0.00000000	      0.00000000
      4.52000000	    -10.56113196	     -1.04787595	     -1.04302520	     -0.33948364	      0.89594286	     -0.87806846	     38.85852265	    -15.29547353	    -16.39736048	     59.57953649	      1.03985908	     28.99936236	      0.00000000	      0.00000000	     41.89362908	    -21.04826252	    -16.34804443	     62.19025955	      1.08542479	     21.83183579	      0.00000000	      0.00000000	    -16.78117623	      0.42604976	      6.65489272	     27.13194454	    -44.32773047	     89.23497784	     81.84082717	     88.16983575	      0.00000000	      0.00000000	     30.51463249	    -41.37452537	     89.49574169	     85.30910332	     88.30556749	      0.00000000	      0.00000000
      4.52500000	     -9.97221411	     -0.90685844	     -1.01110845	     -0.33477324	      0.90658859	     -0.87838579	     36.85377597	    -15.32806608	    -17.15623115	     57.37844424	      1.00144277	     27.43868195	      0.00000000	      0.00000000	     39.87930581	    -20.64562006	    -16.99468448	     60.20283783	      1.05073774	     20.15871121	      0.00000000	      0.00000000	    -16.35085543	      0.35318794	      6.66809971	     26.86292411	    -43.98769463	     89.25789807	     81.00753171	     88.16903098	      0.00000000	      0.00000000	     30.37779074	    -40.99337008	     89.51765835	     84.56032053	     88.32027185	      0.00000000	      0.00000000
      4.53000000	     -9.33245872	     -0.71059321	     -0.99663443	     -0.32960353	      0.91762213	     -0.87857981	     34.74418454	    -15.42433441	    -18.05982578	     55.09751400	      0.96163303	     25.76428838	      0.00000000	      0.00000000	     37.66074414	    -20.22692188	    -17.82876229	     57.98487518	      1.01202699	     18.35821516	      0.00000000	      0.00000000	    -15.93275093	      0.21024846	      6.66366327	     26.57500807	    -43.54949336	     89.27891957	     80.15280130	     88.17710510	      0.00000000	      0.00000000	     30.19273620	    -40.63696888	     89.52263913	     83.85130024	     88.33010423	      0.00000000	      0.00000000
      4.53500000	     -8.76189429	     -0.54057981	     -0.93771568	     -0.32464849	      0.92908523	     -0.87884327	     32.66127142	    -15.41355204	    -18.80011132	     52.66165812	      0.91911932	     23.72925598	      0.00000000	      0.00000000	     35.52490103	    -19.74196418	    -18.55970209	     55.69180015	      0.97200528	     16.45959274	      0.00000000	      0.00000000	    -15.49556425	      0.09663470	      6.66399162	     26.22353611	    -43.18875861	     89.29160702	     79.21003199	     88.17420572	      0.00000000	      0.00000000	     30.09746964	    -40.27885711	     89.53118756	     82.98664039	     88.30980624	      0.00000000	      0.00000000
      4.54000000	     -8.22637981	     -0.46078932	     -0.77410219	     -0.31961465	      0.94082375	     -0.87930056	     30.49904528	    -15.31908337	    -19.66864463	     50.02414962	      0.87308612	     21.53772863	      0.00000000	      0.00000000	     33.49824259	    -19.22709198	    -19.04746969	     53.30814616	      0.93040267	     14.50327283	      0.00000000	      0.00000000	    -15.00161446	      0.11400057	      6.53819576	     25.90253208	    -42.76595513	     89.31348331	     78.30430782	     88.17361934	      0.00000000	      0.00000000	     29.88538316	    -39.89940138	     89.54198192	     82.25392739	     88.31789416	      0.00000000	      0.00000000
      4.54500000	     -7.46909012	     -0.42325357	     -0.70827117	     -0.31427413	      0.95323191	     -0.87965333	     28.06185433	    -15.13237862	    -20.64795962	     47.22541768	      0.82423903	     19.13322544	      0.00000000	      0.00000000	     31.09017799	    -18.77217076	    -19.62715345	     50.72426503	      0.88530544	     12.06694856	      0.00000000	      0.00000000	    -14.76434910	      0.17031871	      6.48558228	     25.60932530	    -42.34185989	     89.28861075	     77.36294178	     88.16787601	      0.00000000	      0.00000000	     29.62985085	    -39.59803555	     89.53615098	     81.53071527	     88.32384492	      0.00000000	      0.00000000
      4.55000000	     -6.59840565	     -0.28741703	     -0.66923833	     -0.30876266	      0.96631691	     -0.88002537	     25.44074925	    -14.97008906	    -21.57277256	     44.25720374	      0.77243392	     16.43873417	      0.00000000	      0.00000000	     28.41372437	    -18.20578794	    -20.39615882	     47.90516610	      0.83610288	      9.23888823	      0.00000000	      0.00000000	    -14.67829933	      0.10055508	      6.43111024	     25.33028717	    -41.89930916	     89.26242489	     76.51378954	     88.15377091	      0.00000000	      0.00000000	     29.41756508	    -39.32540168	     89.52617416	     80.91383983	     88.32452717	      0.00000000	      0.00000000
      4.55500000	     -5.85546315	     -0.32772314	     -0.35193036	     -0.30348915	      0.97926144	     -0.88071480	     22.84810503	    -14.69860897	    -22.80983472	     41.22965618	      0.71959325	     13.49590080	      0.00000000	      0.00000000	     26.07250247	    -17.66283310	    -20.74977654	     45.06298105	      0.78649739	      6.38405585	      0.00000000	      0.00000000	    -14.45877798	      0.28665547	      6.13494922	     25.04261396	    -41.50862113	     89.29753266	     75.81917015	     88.16388603	      0.00000000	      0.00000000	     29.20049805	    -39.11053261	     89.53594242	     80.36585157	     88.31679207	      0.00000000	      0.00000000
      4.56000000	     -5.19146913	     -0.20531950	     -0.20974481	     -0.29811876	      0.99252216	     -0.88128409	     20.40765872	    -14.39119156	    -23.46175463	     37.97722159	      0.66282756	     10.06284144	      0.00000000	      0.00000000	     23.70748749	    -16.99989903	    -21.28280139	     42.06109240	      0.73410455	      3.56437821	      0.00000000	      0.00000000	    -14.16235529	      0.26256194	      5.97401056	     24.70168303	    -41.10274070	     89.26971139	     75.04802502	     88.14406504	      0.00000000	      0.00000000	     28.92096264	    -38.89298457	     89.52808129	     79.80773456	     88.30969700	      0.00000000	      0.00000000
